<svg width="72" height="72" viewBox="0 0 72 72" fill="none" xmlns="http://www.w3.org/2000/svg">
<path d="M65 0H7C3.14 0 0 3.14 0 7V65C0 68.86 3.14 72 7 72H65C68.86 72 72 68.86 72 65V7C72 3.14 68.86 0 65 0ZM54 48C54 52 52 56 46 56H44C42.28 56 38 54 38 50C38 46 40.78 44 44 44H46C47.92 44 50 42.98 50 41.08V22L30 26V52C30 56.74 25.76 60 20.96 60H20.08C18.36 60 16.72 59.28 15.56 58.02C14.42 56.78 13.86 55.08 14.04 53.38C14.32 50.36 17.1 48 20.32 48H22.7C24.6 48 26.18 46.46 26.18 44.58V19.46C26.18 17.82 27.38 16.38 29 16.1L50.9 12.06C51.66 11.9 52.46 12.1 53.06 12.6C53.66 13.08 54 13.8 54 14.58V48Z" fill="#0021F5"/>
</svg>
